Coordinates
version=1
nRows=24
nColumns=22
inDegrees=yes

Units are S.I. units (second, meters, Newtons, ...)
If the header above contains a line with 'inDegrees', this indicates whether rotational values are in degrees (yes) or radians (no).

endheader
time	pelvis_tilt	pelvis_list	pelvis_rotation	pelvis_tx	pelvis_ty	pelvis_tz	hip_flexion_r	hip_adduction_r	hip_rotation_r	knee_angle_r	ankle_angle_r	subtalar_angle_r	hip_flexion_l	hip_adduction_l	hip_rotation_l	knee_angle_l	ankle_angle_l	subtalar_angle_l	lumbar_extension	lumbar_bending	lumbar_rotation
      1.85000000	     -3.65222792	      5.39582595	    -26.51689846	      0.07492941	      0.86377590	      0.14068061	     -0.23710482	     -8.42021497	     -4.36764340	    -59.33398276	     -7.59278368	      3.18970953	     24.65721886	      9.96259910	     -5.92377273	    -40.57867777	     15.43206276	    -11.23977312	    -12.09857399	     -3.90729968	     12.42650793
      1.86000000	     -3.03466564	      5.45351008	    -26.11838496	      0.09182147	      0.85957719	      0.14942128	      2.38916555	     -9.62441715	     -4.39212481	    -63.67242034	     -5.41463223	      1.37866302	     22.80160385	     10.71559199	     -5.22543362	    -41.11411450	     17.74510244	    -12.40173147	    -12.87390307	     -4.27961228	     11.00441933
      1.87000000	     -2.46085675	      5.55457094	    -25.74092808	      0.10838135	      0.85596260	      0.15826193	      5.23856041	    -10.76399544	     -4.20370671	    -67.68257066	     -3.24173063	     -0.60721727	     20.92637489	     11.42588245	     -4.45869097	    -41.47376667	     19.72673473	    -13.33069476	    -13.64887160	     -4.68684642	      9.50784892
      1.88000000	     -1.97669523	      5.66289386	    -25.38982122	      0.12475720	      0.85311164	      0.16725520	      8.29235136	    -11.76223267	     -3.84242480	    -71.24540820	     -1.15076224	     -2.61012190	     19.03091641	     12.02939712	     -3.64666508	    -41.60798503	     21.30857841	    -13.98877623	    -14.36587435	     -5.05483751	      7.95032626
      1.89000000	     -1.61655237	      5.72931653	    -25.07419219	      0.14110789	      0.85115688	      0.17646578	     11.49849717	    -12.53884701	     -3.36495568	    -74.24652835	      0.80959122	     -4.53302872	     17.10599275	     12.45613366	     -2.80604813	    -41.49134177	     22.46714662	    -14.38612488	    -14.97578382	     -5.30619900	      6.33550615
      1.90000000	     -1.38857673	      5.70646462	    -24.80125150	      0.15761015	      0.85020637	      0.18594598	     14.76431914	    -13.03392773	     -2.83959740	    -76.58588985	      2.60232009	     -6.30527121	     15.12155479	     12.65223128	     -1.96561215	    -41.10534201	     23.19073770	    -14.52956855	    -15.45473597	     -5.37900752	      4.67129893
      1.91000000	     -1.29176239	      5.57228189	    -24.59507138	      0.17439917	      0.85029232	      0.19575709	     18.00787899	    -13.21827982	     -2.31478529	    -78.20108312	      4.20334957	     -7.82756002	     13.06729992	     12.57931724	     -1.21261959	    -40.44476438	     23.44820285	    -14.43895138	    -15.77586786	     -5.24581088	      2.96439888
      1.92000000	     -1.29351961	      5.29807307	    -24.45226814	      0.19157872	      0.85146408	      0.20592635	     21.09526045	    -13.08062391	     -1.85965142	    -79.03981654	      5.60399559	     -9.07513156	     10.90071840	     12.23890247	     -0.53286958	    -39.50756235	     23.26647104	    -14.10281514	    -15.97024478	     -4.89583907	      1.24380723
      1.93000000	     -1.39236343	      4.89755480	    -24.39448529	      0.20920755	      0.85365211	      0.21650132	     23.96833290	    -12.63607708	     -1.49372500	    -79.09067551	      6.80204724	     -9.95232621	      8.65139775	     11.62976851	     -0.03667915	    -38.31245332	     22.59217442	    -13.53007572	    -16.01147162	     -4.34723686	     -0.47934116
      1.94000000	     -1.57156367	      4.39315409	    -24.41428263	      0.22728928	      0.85678304	      0.22747037	     26.56169817	    -11.93012199	     -1.24635476	    -78.35836971	      7.79760161	    -10.46603225	      6.34629523	     10.79512164	      0.25948304	    -36.89359056	     21.39987654	    -12.73993872	    -15.91244941	     -3.63791254	     -2.19631494
      1.95000000	     -1.79105196	      3.80489394	    -24.47450839	      0.24586015	      0.86081113	      0.23874749	     28.78389600	    -11.04653195	     -1.16427049	    -76.85283991	      8.56489757	    -10.64023961	      3.98093721	      9.80388283	      0.41488177	    -35.28065940	     19.65439250	    -11.80178320	    -15.71998741	     -2.80207607	     -3.91710302
      1.96000000	     -2.08441265	      3.17510044	    -24.60694997	      0.26482134	      0.86548730	      0.25036674	     30.68081119	     -9.99660928	     -1.18986431	    -74.62480251	      9.16665728	    -10.62370102	      1.68067198	      8.67669756	      0.32745284	    -33.58137531	     17.35408851	    -10.48088788	    -15.39014990	     -1.88485881	     -5.59213638
      1.97000000	     -2.43420436	      2.56782785	    -24.74250168	      0.28412277	      0.87063945	      0.26217360	     32.24848915	     -8.90400563	     -1.34727889	    -71.73163668	      9.56306870	    -10.35200824	     -0.48937079	      7.51770049	      0.11292244	    -31.87688721	     14.50321506	     -8.96651950	    -14.94413311	     -0.95452971	     -7.28443349
      1.98000000	     -2.76683077	      1.95817417	    -24.85700774	      0.30383992	      0.87622523	      0.27407932	     33.36571433	     -7.83045699	     -1.67806883	    -68.18870874	      9.75538320	     -9.84960412	     -2.59506053	      6.37027165	     -0.09233856	    -30.21135268	     11.21956922	     -7.45438488	    -14.47629644	     -0.00521908	     -8.96816941
      1.99000000	     -3.09272004	      1.40398054	    -24.91681282	      0.32387766	      0.88196951	      0.28601432	     34.09409196	     -6.84202994	     -2.16547091	    -64.08149261	      9.71943350	     -9.12438426	     -4.53470194	      5.28745279	     -0.21795248	    -28.69624879	      7.61210770	     -5.96730017	    -13.96533718	      0.90396917	    -10.67492637
      2.00000000	     -3.39808759	      0.93215447	    -24.90049804	      0.34420322	      0.88764840	      0.29792549	     34.45418064	     -5.98289211	     -2.80797777	    -59.49228263	      9.38859210	     -8.09600210	     -6.27028717	      4.30579242	     -0.16711841	    -27.41303943	      3.84673878	     -4.53264153	    -13.41729483	      1.73901429	    -12.39925335
      2.01000000	     -3.64573753	      0.54153359	    -24.78645985	      0.36481906	      0.89308675	      0.30983017	     34.43137471	     -5.27210982	     -3.62615379	    -54.51662400	      8.72443404	     -6.71141185	     -7.81400408	      3.42866642	      0.11884884	    -26.43180553	      0.14882188	     -3.27278535	    -12.86446776	      2.47433289	    -14.15403376
      2.02000000	     -3.82467579	      0.23716738	    -24.56430504	      0.38568773	      0.89807047	      0.32171895	     34.06771403	     -4.70248035	     -4.60909231	    -49.28757695	      7.62925546	     -4.86198420	     -9.14638915	      2.65890646	      0.68038985	    -25.82787411	     -3.26577181	     -2.22684879	    -12.31606881	      3.09200914	    -15.92246865
      2.03000000	     -3.89845237	     -0.00086361	    -24.22949468	      0.40677424	      0.90243131	      0.33367671	     33.37797228	     -4.23949368	     -5.74120431	    -43.96823556	      6.11495223	     -2.62685975	    -10.27499537	      1.96743996	      1.44923819	    -25.69906569	     -6.18778748	     -1.50138724	    -11.80937265	      3.56973817	    -17.71077485
      2.04000000	     -3.87730614	     -0.18193836	    -23.79715182	      0.42801286	      0.90596357	      0.34572485	     32.45602310	     -3.83900657	     -6.98104348	    -38.75723034	      4.22948510	     -0.07137074	    -11.15677683	      1.33613709	      2.35142286	    -26.13363813	     -8.48596975	     -1.11276507	    -11.34224113	      3.91161233	    -19.46141794
      2.05000000	     -3.78649854	     -0.31141062	    -23.30189908	      0.44929509	      0.90847007	      0.35793875	     31.42639408	     -3.44858676	     -8.24556073	    -33.87439713	      2.14601112	      2.69585812	    -11.72199510	      0.73828932	      3.22985215	    -27.22459150	    -10.15849043	     -1.05278200	    -10.89050142	      4.11074301	    -21.12291452
      2.06000000	     -3.57902009	     -0.43003859	    -22.78087345	      0.47048653	      0.90995198	      0.37032544	     30.32621942	     -3.03904779	     -9.46550400	    -29.52911532	     -0.05673434	      5.29429556	    -12.02181873	      0.16144642	      3.99995903	    -28.98980614	    -11.14718610	     -1.25337605	    -10.54750591	      4.17776224	    -22.64759995
      2.07000000	     -3.32459048	     -0.54249472	    -22.27887777	      0.49147156	      0.91027820	      0.38289498	     29.29105226	     -2.57805897	    -10.56781473	    -25.87362263	     -2.04205610	      7.66611025	    -11.97128792	     -0.42307471	      4.57365311	    -31.44086773	    -11.65808713	     -1.61611104	    -10.24897194	      4.14050041	    -23.95444722
      2.08000000	     -2.99589245	     -0.68838440	    -21.82695401	      0.51217766	      0.90953744	      0.39560030	     28.31398576	     -2.06405689	    -11.53670364	    -22.99833542	     -3.64736539	      9.52136977	    -11.65220826	     -1.02752004	      4.96489381	    -34.48463647	    -11.76396559	     -2.02007262	    -10.05817246	      4.03423158	    -25.01235185
